<svg width="75" height="63" viewBox="0 0 75 63" fill="none" xmlns="http://www.w3.org/2000/svg">
<circle cx="31.5" cy="31.5" r="31.5" fill="#EFEFEF"/>
<mask id="mask0_539_2325" style="mask-type:alpha" maskUnits="userSpaceOnUse" x="0" y="0" width="75" height="63">
<path d="M75 27.2687C75 44.6656 49.0581 63 31.6038 63C14.1495 63 0 57.8298 0 40.4328C0 23.0359 14.1495 0 31.6038 0C49.0581 0 75 9.87169 75 27.2687Z" fill="#C4C4C4"/>
</mask>
<g mask="url(#mask0_539_2325)">
<path d="M61.3715 12.4978L61.1167 10.8348C61.1167 10.8348 59.3335 9.16473 59.3547 8.32971C59.3759 7.42391 59.4184 6.17137 59.9845 6.01569C60.6638 5.8317 61.7324 7.30361 62.1994 8.46416C62.532 9.29211 62.6028 10.0351 62.6099 10.5376L63.2892 12.7384L61.3715 12.4978Z" fill="url(#paint0_linear_539_2325)"/>
<path d="M60.0979 10.5095C60.0979 10.5095 59.0789 9.89385 58.8878 8.705C58.6967 7.50907 59.1992 8.71915 60.1545 9.17912C61.1169 9.6391 61.1169 9.6391 61.1169 9.6391C61.1169 9.6391 62.143 10.092 61.9378 10.4812C61.7255 10.8633 60.0979 10.5095 60.0979 10.5095Z" fill="url(#paint1_linear_539_2325)"/>
<path d="M60.1969 12.9794C61.1452 11.9179 62.0651 11.465 62.9214 11.3589C66.7144 10.8918 71.4698 17.0767 71.9227 22.9997C71.9581 23.4243 72.3756 30.0479 67.1956 34.4424C59.7228 40.7901 46.0156 37.9099 43.6167 32.7016C42.8312 30.9891 42.9798 28.4486 43.0081 28.0028C43.178 25.1581 44.2748 23.0351 44.9329 21.9524C50.8206 23.4314 58.1589 24.224 60.3526 21.3509C61.9944 19.1997 62.6242 16.1143 60.1969 12.9794Z" fill="url(#paint2_linear_539_2325)"/>
<path d="M13.3643 23.304C17.9994 21.7755 25.1466 20.07 33.9852 20.4451C39.1723 20.6644 43.6658 21.549 47.2466 22.5326C47.7065 25.158 48.1736 27.7834 48.6336 30.4159C48.7185 33.0483 48.7185 36.6149 48.3717 40.8254C48.025 45.0289 47.7207 45.0855 46.9564 51.0085C45.718 60.6467 46.1709 63.1942 44.14 64.277C42.8237 64.9775 42.3779 64.8785 35.7614 63.9585C31.374 63.3499 29.527 63.2013 27.3191 63.8382C24.3187 64.7015 22.9175 65.3597 21.7004 64.7723C20.5327 64.2062 20.4054 62.2035 20.2992 58.729C20.1365 53.365 20.186 49.7277 20.1789 48.4256C20.1435 42.4459 18.6575 37.8533 16.761 31.9939C15.5792 28.3354 14.3267 25.3774 13.3643 23.304Z" fill="url(#paint3_linear_539_2325)"/>
<path opacity="0.3" d="M41.5927 61.0073C38.3446 59.5353 38.3941 56.7472 35.3725 55.4805C31.0982 53.6831 26.357 57.3416 25.6352 56.2589C24.8851 55.1338 30.525 51.9422 29.8103 48.588C29.2442 45.9201 25.3238 46.2881 23.2787 42.6296C21.3468 39.1691 23.2858 36.0484 21.552 34.8313C20.9293 34.3925 19.8324 34.2085 17.752 35.0789C19.1531 39.5725 20.158 43.5354 20.1863 48.4252C20.1933 49.7273 20.1438 53.3646 20.3066 58.7286C20.4127 62.2032 20.5401 64.2058 21.7077 64.7719C22.9249 65.3664 24.3331 64.7083 27.3265 63.8379C29.5414 63.201 31.3671 62.5287 35.7546 63.1302C42.364 64.0431 42.8311 64.9701 44.1473 64.2766C45.0036 63.8237 45.4211 63.0948 45.7042 61.6866C44.3667 61.7786 42.9514 61.6229 41.5927 61.0073Z" fill="url(#paint4_linear_539_2325)"/>
<path d="M33.4295 11.4717C33.2996 13.7984 32.91 15.6273 32.5853 16.8718C32.2066 18.3003 31.9685 18.6683 31.6871 18.9496C31.2542 19.3825 30.6266 19.7288 27.1744 20.3673C25.3022 20.7136 25.0641 20.692 25.01 20.8651C24.7503 21.7309 29.5985 24.9883 34.8796 24.5662C38.1262 24.3065 41.178 22.6832 41.0589 21.7309C40.9399 20.7785 37.6825 21.1032 36.8275 19.3392C36.2431 18.1163 37.0981 16.4714 38.072 15.1187C37.3253 13.5387 34.187 13.0733 33.4295 11.4717Z" fill="url(#paint5_linear_539_2325)"/>
<path d="M39.9017 13.3651C40.9298 12.6292 41.4926 10.9951 40.9839 9.70733C40.5402 8.60349 39.4364 8.14897 38.7871 7.87842C36.8824 7.09924 34.1553 7.19664 32.7376 8.72253C31.9043 9.62075 32.3264 12.1098 32.3697 12.5535C32.4238 13.0513 32.7376 13.3002 32.9541 13.7331C33.2679 14.3283 33.7441 15.2698 34.5232 16.839C34.7288 16.5035 35.0102 16.0923 35.3782 15.6702C35.5188 15.5079 36.0924 14.8694 36.7958 14.404C38.2027 13.4734 38.9278 14.0577 39.9017 13.3651Z" fill="url(#paint6_linear_539_2325)"/>
<path d="M33.1921 15.3131C33.1921 15.3131 33.8306 17.7589 36.4603 18.3324C38.8195 18.8519 40.7458 13.8955 39.6095 12.402C39.2307 11.9042 38.2892 11.4713 37.4126 11.4605C36.8932 11.4497 36.6767 11.6012 35.8434 11.5796C35.0751 11.5579 34.8911 11.4172 34.6206 11.5363C34.2851 11.677 33.9171 12.1639 33.9063 13.7764C33.6033 13.2137 33.1271 12.8998 32.7051 12.9648C32.6401 12.9756 32.4454 13.0297 32.3047 13.1704C31.796 13.6465 32.099 14.5339 33.1921 15.3131Z" fill="url(#paint7_linear_539_2325)"/>
<path d="M34.6094 11.2121C34.696 11.3203 34.2306 11.6341 34.025 12.1969C33.6246 13.2899 34.3605 14.9564 35.4968 15.411C36.1678 15.6815 36.4924 15.3244 37.6828 15.5408C38.4187 15.6707 38.9923 15.9304 39.3386 16.1252C39.3169 17.4563 38.5919 18.571 37.5746 18.8956C36.4816 19.2419 35.4535 18.5385 35.0206 18.2463C34.7284 18.0515 33.8086 17.4239 33.5597 16.3525C33.2999 15.227 34.0358 14.8158 33.5921 13.9825C33.3757 13.5604 32.9861 13.3007 32.7805 12.5432C32.7264 12.3375 32.6939 12.1644 32.6831 12.0454C33.4515 11.5908 34.4795 11.0497 34.6094 11.2121Z" fill="url(#paint8_linear_539_2325)"/>
<path d="M38.3536 16.3298C38.3536 16.3298 37.7692 16.438 36.9251 16.1458C36.8818 16.135 36.8385 16.135 36.8169 16.1458C36.7736 16.2216 37.2173 16.741 37.7692 16.741C38.1588 16.741 38.5484 16.4921 38.5268 16.3947C38.5159 16.3514 38.4402 16.3298 38.3536 16.3298Z" fill="url(#paint9_linear_539_2325)"/>
<path d="M17.3841 48.3474L18.9197 48.3049C18.9197 48.3049 20.6251 46.9604 21.3894 47.0665C22.1607 47.1727 23.3142 47.7317 23.4486 47.852C23.5902 47.9652 23.017 48.5738 22.4579 48.496C21.8918 48.4181 20.6393 48.68 20.4057 49.1612C20.1793 49.6424 19.2027 49.9113 19.04 49.6141L16.9736 49.9608L17.3841 48.3474Z" fill="url(#paint10_linear_539_2325)"/>
<path d="M17.8509 47.8307C17.9429 49.0762 17.6669 49.9183 17.1999 50.4844C15.1477 52.9895 8.34008 51.7228 4.35601 48.1916C1.42633 45.5945 -0.0880388 41.66 0.00395581 38.1784C0.180868 31.3778 6.56388 24.7471 16.1242 22.4756C17.5112 26.7003 18.8982 30.9391 20.2852 35.185C14.3409 35.1779 11.8642 39.3318 12.3595 42.495C12.7346 44.8444 14.3268 47.215 17.8509 47.8307Z" fill="url(#paint11_linear_539_2325)"/>
</g>
<defs>
<linearGradient id="paint0_linear_539_2325" x1="58.6164" y1="8.97133" x2="109.991" y2="15.6766" gradientUnits="userSpaceOnUse">
<stop stop-color="#FFC444"/>
<stop offset="0.9964" stop-color="#F36F56"/>
</linearGradient>
<linearGradient id="paint1_linear_539_2325" x1="58.5814" y1="9.24115" x2="109.956" y2="15.9465" gradientUnits="userSpaceOnUse">
<stop stop-color="#FFC444"/>
<stop offset="0.9964" stop-color="#F36F56"/>
</linearGradient>
<linearGradient id="paint2_linear_539_2325" x1="72.5215" y1="20.6844" x2="18.2927" y2="39.9684" gradientUnits="userSpaceOnUse">
<stop stop-color="#FF9085"/>
<stop offset="1" stop-color="#FB6FBB"/>
</linearGradient>
<linearGradient id="paint3_linear_539_2325" x1="22.3385" y1="57.8932" x2="46.3864" y2="7.30593" gradientUnits="userSpaceOnUse">
<stop stop-color="#FF9085"/>
<stop offset="1" stop-color="#FB6FBB"/>
</linearGradient>
<linearGradient id="paint4_linear_539_2325" x1="26.3377" y1="59.9728" x2="49.7861" y2="10.6467" gradientUnits="userSpaceOnUse">
<stop stop-color="#FF9085"/>
<stop offset="1" stop-color="#FB6FBB"/>
</linearGradient>
<linearGradient id="paint5_linear_539_2325" x1="28.2611" y1="29.4567" x2="40.2436" y2="9.30155" gradientUnits="userSpaceOnUse">
<stop stop-color="#FFC444"/>
<stop offset="0.9964" stop-color="#F36F56"/>
</linearGradient>
<linearGradient id="paint6_linear_539_2325" x1="27.9511" y1="21.1566" x2="38.4487" y2="8.54758" gradientUnits="userSpaceOnUse">
<stop stop-color="#444B8C"/>
<stop offset="0.9964" stop-color="#26264F"/>
</linearGradient>
<linearGradient id="paint7_linear_539_2325" x1="36.4483" y1="12.3507" x2="30.5496" y2="33.6342" gradientUnits="userSpaceOnUse">
<stop stop-color="#FFC444"/>
<stop offset="0.9964" stop-color="#F36F56"/>
</linearGradient>
<linearGradient id="paint8_linear_539_2325" x1="29.6852" y1="22.2521" x2="39.8197" y2="10.0792" gradientUnits="userSpaceOnUse">
<stop stop-color="#444B8C"/>
<stop offset="0.9964" stop-color="#26264F"/>
</linearGradient>
<linearGradient id="paint9_linear_539_2325" x1="38.0685" y1="15.4237" x2="36.8359" y2="18.105" gradientUnits="userSpaceOnUse">
<stop stop-color="#FFC444"/>
<stop offset="1" stop-color="#F36F56"/>
</linearGradient>
<linearGradient id="paint10_linear_539_2325" x1="9.62316" y1="55.7864" x2="47.587" y2="29.1624" gradientUnits="userSpaceOnUse">
<stop stop-color="#FFC444"/>
<stop offset="0.9964" stop-color="#F36F56"/>
</linearGradient>
<linearGradient id="paint11_linear_539_2325" x1="5.32329" y1="50.1285" x2="28.7234" y2="0.903817" gradientUnits="userSpaceOnUse">
<stop stop-color="#FF9085"/>
<stop offset="1" stop-color="#FB6FBB"/>
</linearGradient>
</defs>
</svg>
